<svg width="70" height="70" viewBox="0 0 70 70" fill="none" xmlns="http://www.w3.org/2000/svg">
<circle cx="35.1076" cy="34.9524" r="34.5" fill="#58575D"/>
<path d="M50.7076 15.4524H22.2076C21.1998 15.4524 20.2332 15.8422 19.5206 16.5361C18.808 17.23 18.4076 18.1711 18.4076 19.1524V24.7024H14.6076V28.4024H18.4076V32.1024H14.6076V35.8024H18.4076V39.5024H14.6076V43.2024H18.4076V48.7524C18.4076 49.7337 18.808 50.6748 19.5206 51.3687C20.2332 52.0626 21.1998 52.4524 22.2076 52.4524H50.7076C51.2115 52.4524 51.6948 52.2575 52.0511 51.9105C52.4074 51.5636 52.6076 51.093 52.6076 50.6024V17.3024C52.6076 16.8117 52.4074 16.3412 52.0511 15.9942C51.6948 15.6473 51.2115 15.4524 50.7076 15.4524ZM35.5076 21.0005C38.6388 21.0005 41.2076 23.4999 41.2076 26.5505C41.2021 28.021 40.5999 29.4298 39.5321 30.4697C38.4644 31.5097 37.0178 32.0965 35.5076 32.1024C32.3783 32.1024 29.8076 29.5993 29.8076 26.5505C29.8076 23.4999 32.3783 21.0005 35.5076 21.0005ZM46.9076 45.0524H24.1076V43.6649C24.1076 39.5597 29.2471 35.3399 35.5076 35.3399C41.7681 35.3399 46.9076 39.5597 46.9076 43.6649V45.0524Z" fill="white"/>
</svg>
