<svg width="42" height="30" viewBox="0 0 42 30" fill="none" xmlns="http://www.w3.org/2000/svg">
<path d="M38.448 0.105164H2.95754C2.17315 0.105164 1.42089 0.416761 0.866243 0.971407C0.311597 1.52605 0 2.27832 0 3.0627V26.723C0 27.5074 0.311597 28.2597 0.866243 28.8143C1.42089 29.369 2.17315 29.6806 2.95754 29.6806H38.448C39.2324 29.6806 39.9847 29.369 40.5393 28.8143C41.094 28.2597 41.4056 27.5074 41.4056 26.723V3.0627C41.4056 2.27832 41.094 1.52605 40.5393 0.971407C39.9847 0.416761 39.2324 0.105164 38.448 0.105164ZM35.1947 3.0627L20.7028 13.0888L6.21083 3.0627H35.1947ZM2.95754 26.723V4.40838L19.8599 16.1055C20.1074 16.2772 20.4015 16.3692 20.7028 16.3692C21.0041 16.3692 21.2981 16.2772 21.5457 16.1055L38.448 4.40838V26.723H2.95754Z" fill="white"/>
</svg>
