<svg width="54" height="54" viewBox="0 0 54 54" fill="none" xmlns="http://www.w3.org/2000/svg">
<circle cx="27" cy="27" r="25.5" fill="white" stroke="white" stroke-width="3"/>
<path d="M12 18C12 18 14.25 15 19.5 15C24.75 15 27 18 27 18V39C27 39 24.75 37.5 19.5 37.5C14.25 37.5 12 39 12 39V18Z" fill="white" stroke="black" stroke-width="3" stroke-linecap="round" stroke-linejoin="round"/>
<path d="M27 18C27 18 29.25 15 34.5 15C39.75 15 42 18 42 18V39C42 39 39.75 37.5 34.5 37.5C29.25 37.5 27 39 27 39V18Z" fill="white" stroke="black" stroke-width="3" stroke-linecap="round" stroke-linejoin="round"/>
</svg>
