<svg width="45" height="44" viewBox="0 0 45 44" fill="none" xmlns="http://www.w3.org/2000/svg">
<path fill-rule="evenodd" clip-rule="evenodd" d="M22.0047 0.189819C9.8471 0.189819 0 10.0369 0 22.1945C0 31.9316 6.29884 40.1558 15.0457 43.0714C16.1459 43.264 16.5585 42.6038 16.5585 42.0262C16.5585 41.5036 16.531 39.7707 16.531 37.9279C11.0023 38.9456 9.57204 36.5801 9.13194 35.3423C8.88439 34.7097 7.81166 32.7568 6.87646 32.2341C6.1063 31.8216 5.00607 30.8038 6.84896 30.7763C8.58183 30.7488 9.81959 32.3717 10.2322 33.0318C12.2126 36.36 15.3758 35.4248 16.641 34.8472C16.8336 33.4169 17.4112 32.4542 18.0438 31.9041C13.1478 31.354 8.03171 29.456 8.03171 21.0393C8.03171 18.6462 8.88439 16.6658 10.2872 15.1255C10.0671 14.5754 9.29698 12.3199 10.5072 9.29426C10.5072 9.29426 12.3501 8.71663 16.5585 11.5497C18.3189 11.0546 20.1893 10.8071 22.0597 10.8071C23.9301 10.8071 25.8005 11.0546 27.5609 11.5497C31.7693 8.68913 33.6122 9.29426 33.6122 9.29426C34.8224 12.3199 34.0522 14.5754 33.8322 15.1255C35.235 16.6658 36.0877 18.6187 36.0877 21.0393C36.0877 29.4836 30.9441 31.354 26.048 31.9041C26.8457 32.5917 27.5334 33.912 27.5334 35.9749C27.5334 38.9181 27.5059 41.2836 27.5059 42.0262C27.5059 42.6038 27.9184 43.2915 29.0187 43.0714C33.3869 41.5966 37.1827 38.7891 39.8719 35.0441C42.561 31.299 44.0081 26.805 44.0094 22.1945C44.0094 10.0369 34.1623 0.189819 22.0047 0.189819Z" fill="white"/>
</svg>
