<svg width="53" height="44" viewBox="0 0 53 44" fill="none" xmlns="http://www.w3.org/2000/svg">
<path d="M3.6813 25.2401C3.43345 25.086 3.19082 24.9264 2.95367 24.7615C3.12307 24.9832 3.37132 25.155 3.6813 25.2401Z" fill="white"/>
<path d="M5.51233 3.10316H47.1455V22.9821C48.6048 22.3217 49.3887 21.8716 49.9257 21.5834V1.96525C49.9253 1.6641 49.7785 1.37538 49.5174 1.16254C49.2564 0.949695 48.9025 0.830139 48.5335 0.830139H4.12017C3.35002 0.830139 2.72595 1.33948 2.72595 1.96525V21.6338C3.2547 21.9058 4.01387 22.362 5.51233 23.0443V3.10316Z" fill="white"/>
<path d="M52.3198 21.2476C51.9611 21.0142 51.4646 21.0153 50.6767 21.2476C50.4469 21.3159 50.2144 21.4295 49.9257 21.5834C49.3887 21.8717 48.6056 22.3217 47.1455 22.9821C46.6949 23.1836 46.2039 23.4008 45.6086 23.6443C45.4221 23.7204 45.2424 23.7825 45.058 23.8553C41.7024 25.1449 38.6842 25.5591 38.6842 25.5591H28.6888C28.4995 25.5591 27.8932 25.6542 27.6025 26.0119C27.3158 26.369 27.3638 26.9578 27.3638 26.9578V27.9519C27.7245 28.1606 28.1058 28.3476 28.5262 28.4657C31.5396 29.3041 33.5785 28.5732 34.4679 27.5545C35.5083 26.36 36.0377 25.6912 37.1802 26.0404C38.3228 26.3897 37.1802 28.6599 35.7538 29.8258C34.3239 30.9923 32.6101 31.9242 30.1852 31.9242C29.1661 31.9242 28.1785 31.7994 27.3638 31.6578V40.1269C27.3638 42.5169 30.4759 43.7941 32.6156 43.7941C34.7546 43.7941 39.0394 42.8045 41.1105 38.6095C43.1796 34.4155 40.9699 28.881 40.9699 28.881C40.9699 28.881 44.3221 27.6547 47.8217 25.8507C51.3179 24.0456 52.2485 22.3547 52.3198 22.1174C52.3884 21.8784 52.6737 21.4815 52.3198 21.2476Z" fill="white"/>
<path d="M35.7538 29.8253C37.1802 28.6594 38.3228 26.3891 37.1802 26.0399C36.0377 25.6906 35.5083 26.3595 34.4679 27.5539C33.5784 28.5726 31.5396 29.3036 28.5262 28.4651C28.1058 28.347 27.7245 28.1601 27.3638 27.9513C25.8756 27.0877 24.8627 25.6906 24.1172 25.6906H14.1218C14.1218 25.6906 11.3491 25.3078 8.16637 24.1424C7.84679 24.0249 7.52515 23.9085 7.19871 23.7747C6.62966 23.5418 6.06738 23.2981 5.51234 23.0437C4.01389 22.3614 3.25471 21.9058 2.72597 21.6332C2.50583 21.5196 2.31929 21.4345 2.12864 21.3786C1.34409 21.1457 0.84415 21.1457 0.486851 21.3786C0.13161 21.6125 0.415529 22.0099 0.486851 22.2478C0.541715 22.4297 1.11298 23.4702 2.95296 24.7609C3.59471 25.2059 4.27369 25.6138 4.98497 25.9817C8.48114 27.7879 11.8367 29.0109 11.8367 29.0109C11.8367 29.0109 9.62367 34.5442 11.6961 38.7393C13.7659 42.9339 18.0486 43.9279 20.1897 43.9279C22.3314 43.9279 25.4436 42.6422 25.4436 40.2539V31.2251C25.4436 31.2251 26.2336 31.4602 27.3631 31.6567C28.1778 31.7983 29.1654 31.9231 30.1844 31.9231C32.6101 31.9236 34.3239 30.9917 35.7538 29.8253Z" fill="black"/>
<path d="M33.9584 13.6371C32.311 13.6373 30.7312 14.1714 29.5663 15.122C28.4014 16.0727 27.7468 17.362 27.7465 18.7065C27.7465 21.5045 30.5274 23.7752 33.9584 23.7752C37.386 23.7752 40.1662 21.5045 40.1662 18.7065C40.1662 15.9079 37.386 13.6371 33.9584 13.6371Z" fill="white"/>
<path d="M19.2323 13.6371C15.8034 13.6371 13.0239 15.9079 13.0239 18.7065C13.0239 21.5045 15.8027 23.7752 19.2323 23.7752C22.6634 23.7752 25.4443 21.5045 25.4443 18.7065C25.4443 15.9079 22.6634 13.6371 19.2323 13.6371Z" fill="black"/>
</svg>
