<svg height="512" viewBox="0 0 512 512" width="512" xmlns="http://www.w3.org/2000/svg"><path d="m320 335.6h-40v-15.058a48.014 48.014 0 0 0 24-41.542v-30a48 48 0 0 0 -96 0v30a48.014 48.014 0 0 0 24 41.542v15.058h-40a40.045 40.045 0 0 0 -40 40v31.8a8 8 0 0 0 8 8h192a8 8 0 0 0 8-8v-31.8a40.045 40.045 0 0 0 -40-40zm-64-118.6a32.051 32.051 0 0 1 30.769 23.231l-10.331-6.887a8 8 0 0 0 -10.095 1c-14.369 14.369-32.211 19.2-42.343 20.83v-6.174a32.036 32.036 0 0 1 32-32zm-32 54.37c10.91-1.421 31.073-6.059 48.8-21.222l15.2 10.133v18.719a32 32 0 0 1 -64 0zm40 55.63v8h-16v-8zm80 72.4h-16v-15.4a8 8 0 0 0 -16 0v15.4h-113v-15.4a8 8 0 0 0 -16 0v15.4h-15v-23.8a24.027 24.027 0 0 1 24-24h128a24.027 24.027 0 0 1 24 24z"/><path d="m256 136a24 24 0 1 0 -24-24 24.027 24.027 0 0 0 24 24zm0-32a8 8 0 1 1 -8 8 8.009 8.009 0 0 1 8-8z"/><path d="m480 312a24 24 0 1 0 24 24 24.027 24.027 0 0 0 -24-24zm0 32a8 8 0 1 1 8-8 8.009 8.009 0 0 1 -8 8z"/><path d="m32 312a24 24 0 1 0 24 24 24.027 24.027 0 0 0 -24-24zm0 32a8 8 0 1 1 8-8 8.009 8.009 0 0 1 -8 8z"/><path d="m431.362 194.579a24 24 0 1 0 -16.971 7.029 24.028 24.028 0 0 0 16.972-7.029zm-22.627-22.628a8 8 0 1 1 0 11.314 7.948 7.948 0 0 1 0-11.314z"/><path d="m114.579 160.638a24 24 0 0 0 -33.942 33.941 24 24 0 0 0 33.941-33.941zm-11.314 22.627a8 8 0 1 1 0-11.314 7.948 7.948 0 0 1 0 11.314z"/><path d="m104 328h-32a8 8 0 0 0 0 16h32a8 8 0 0 0 0-16z"/><path d="m440 328h-32a8 8 0 0 0 0 16h32a8 8 0 0 0 0-16z"/><path d="m248 152v32a8 8 0 0 0 16 0v-32a8 8 0 0 0 -16 0z"/><path d="m377.656 203.03-22.627 22.627a8 8 0 0 0 11.315 11.313l22.627-22.627a8 8 0 0 0 -11.315-11.313z"/><path d="m156.971 225.657-22.627-22.627a8 8 0 0 0 -11.315 11.313l22.627 22.627a8 8 0 0 0 11.315-11.313z"/><path d="m136 328h-8a8 8 0 0 0 0 16h8a8 8 0 0 0 0-16z"/></svg>